<mxfile host="65bd71144e">
    <diagram id="C5RBs43oDa-KdzZeNtuy" name="Page-1">
        <mxGraphModel dx="933" dy="704" grid="1" gridSize="10" guides="1" tooltips="1" connect="1" arrows="1" fold="1" page="1" pageScale="1" pageWidth="827" pageHeight="1169" math="0" shadow="0">
            <root>
                <mxCell id="WIyWlLk6GJQsqaUBKTNV-0"/>
                <mxCell id="WIyWlLk6GJQsqaUBKTNV-1" parent="WIyWlLk6GJQsqaUBKTNV-0"/>
                <mxCell id="WgjA6SBDDIQvqYweK6Cp-0" value="" style="edgeStyle=orthogonalEdgeStyle;rounded=0;orthogonalLoop=1;jettySize=auto;html=1;" parent="WIyWlLk6GJQsqaUBKTNV-1" source="WIyWlLk6GJQsqaUBKTNV-3" target="WIyWlLk6GJQsqaUBKTNV-7" edge="1">
                    <mxGeometry relative="1" as="geometry"/>
                </mxCell>
                <mxCell id="WIyWlLk6GJQsqaUBKTNV-3" value="&lt;div&gt;Online Store&amp;nbsp;&lt;/div&gt;" style="rounded=1;whiteSpace=wrap;fontSize=12;glass=0;strokeWidth=1;shadow=0;html=1;" parent="WIyWlLk6GJQsqaUBKTNV-1" vertex="1">
                    <mxGeometry x="350" y="30" width="120" height="40" as="geometry"/>
                </mxCell>
                <mxCell id="WgjA6SBDDIQvqYweK6Cp-4" value="" style="edgeStyle=orthogonalEdgeStyle;rounded=0;orthogonalLoop=1;jettySize=auto;html=1;" parent="WIyWlLk6GJQsqaUBKTNV-1" source="WIyWlLk6GJQsqaUBKTNV-6" target="WgjA6SBDDIQvqYweK6Cp-3" edge="1">
                    <mxGeometry relative="1" as="geometry"/>
                </mxCell>
                <mxCell id="WgjA6SBDDIQvqYweK6Cp-7" value="" style="edgeStyle=orthogonalEdgeStyle;rounded=0;orthogonalLoop=1;jettySize=auto;html=1;" parent="WIyWlLk6GJQsqaUBKTNV-1" source="WIyWlLk6GJQsqaUBKTNV-6" target="WgjA6SBDDIQvqYweK6Cp-6" edge="1">
                    <mxGeometry relative="1" as="geometry"/>
                </mxCell>
                <mxCell id="WIyWlLk6GJQsqaUBKTNV-6" value="App" style="rhombus;whiteSpace=wrap;html=1;shadow=0;fontFamily=Helvetica;fontSize=12;align=center;strokeWidth=1;spacing=6;spacingTop=-4;" parent="WIyWlLk6GJQsqaUBKTNV-1" vertex="1">
                    <mxGeometry x="360" y="230" width="100" height="80" as="geometry"/>
                </mxCell>
                <mxCell id="WgjA6SBDDIQvqYweK6Cp-1" value="" style="edgeStyle=orthogonalEdgeStyle;rounded=0;orthogonalLoop=1;jettySize=auto;html=1;" parent="WIyWlLk6GJQsqaUBKTNV-1" source="WIyWlLk6GJQsqaUBKTNV-7" target="WIyWlLk6GJQsqaUBKTNV-6" edge="1">
                    <mxGeometry relative="1" as="geometry"/>
                </mxCell>
                <mxCell id="WIyWlLk6GJQsqaUBKTNV-7" value="App Marketplace&amp;nbsp;&lt;div&gt;(Shopify App Store)&lt;/div&gt;" style="rounded=1;whiteSpace=wrap;html=1;fontSize=12;glass=0;strokeWidth=1;shadow=0;" parent="WIyWlLk6GJQsqaUBKTNV-1" vertex="1">
                    <mxGeometry x="350" y="130" width="120" height="40" as="geometry"/>
                </mxCell>
                <mxCell id="WgjA6SBDDIQvqYweK6Cp-2" value="User Installs App&lt;div&gt;&lt;br&gt;&lt;/div&gt;" style="text;html=1;align=center;verticalAlign=middle;resizable=0;points=[];autosize=1;strokeColor=none;fillColor=none;" parent="WIyWlLk6GJQsqaUBKTNV-1" vertex="1">
                    <mxGeometry x="100" y="320" width="110" height="40" as="geometry"/>
                </mxCell>
                <mxCell id="WgjA6SBDDIQvqYweK6Cp-13" value="" style="edgeStyle=orthogonalEdgeStyle;rounded=0;orthogonalLoop=1;jettySize=auto;html=1;" parent="WIyWlLk6GJQsqaUBKTNV-1" source="WgjA6SBDDIQvqYweK6Cp-3" target="WgjA6SBDDIQvqYweK6Cp-12" edge="1">
                    <mxGeometry relative="1" as="geometry"/>
                </mxCell>
                <mxCell id="WgjA6SBDDIQvqYweK6Cp-3" value="VAKX Interface" style="whiteSpace=wrap;html=1;shadow=0;strokeWidth=1;spacing=6;spacingTop=-4;" parent="WIyWlLk6GJQsqaUBKTNV-1" vertex="1">
                    <mxGeometry x="350" y="370" width="120" height="60" as="geometry"/>
                </mxCell>
                <mxCell id="WgjA6SBDDIQvqYweK6Cp-16" value="" style="edgeStyle=orthogonalEdgeStyle;rounded=0;orthogonalLoop=1;jettySize=auto;html=1;" parent="WIyWlLk6GJQsqaUBKTNV-1" source="WgjA6SBDDIQvqYweK6Cp-6" target="WgjA6SBDDIQvqYweK6Cp-15" edge="1">
                    <mxGeometry relative="1" as="geometry"/>
                </mxCell>
                <mxCell id="WgjA6SBDDIQvqYweK6Cp-6" value="Plans and other info page on the shopify app store itself" style="rounded=1;whiteSpace=wrap;html=1;shadow=0;strokeWidth=1;spacing=6;spacingTop=-4;" parent="WIyWlLk6GJQsqaUBKTNV-1" vertex="1">
                    <mxGeometry x="40" y="240" width="120" height="60" as="geometry"/>
                </mxCell>
                <mxCell id="WgjA6SBDDIQvqYweK6Cp-8" value="Clicks on the App Logo" style="text;html=1;align=center;verticalAlign=middle;resizable=0;points=[];autosize=1;strokeColor=none;fillColor=none;" parent="WIyWlLk6GJQsqaUBKTNV-1" vertex="1">
                    <mxGeometry x="185" y="248" width="150" height="30" as="geometry"/>
                </mxCell>
                <mxCell id="WgjA6SBDDIQvqYweK6Cp-9" value="Clicks the open button" style="text;html=1;align=center;verticalAlign=middle;resizable=0;points=[];autosize=1;strokeColor=none;fillColor=none;" parent="WIyWlLk6GJQsqaUBKTNV-1" vertex="1">
                    <mxGeometry x="410" y="320" width="140" height="30" as="geometry"/>
                </mxCell>
                <mxCell id="WgjA6SBDDIQvqYweK6Cp-20" value="" style="edgeStyle=orthogonalEdgeStyle;rounded=0;orthogonalLoop=1;jettySize=auto;html=1;" parent="WIyWlLk6GJQsqaUBKTNV-1" source="WgjA6SBDDIQvqYweK6Cp-12" target="WgjA6SBDDIQvqYweK6Cp-19" edge="1">
                    <mxGeometry relative="1" as="geometry"/>
                </mxCell>
                <mxCell id="WgjA6SBDDIQvqYweK6Cp-12" value="Make your own bot&lt;br&gt;or&amp;nbsp;&lt;br&gt;Customize the basic prebuild bot" style="rounded=1;whiteSpace=wrap;html=1;shadow=0;strokeWidth=1;spacing=6;spacingTop=-4;" parent="WIyWlLk6GJQsqaUBKTNV-1" vertex="1">
                    <mxGeometry x="655" y="350" width="150" height="100" as="geometry"/>
                </mxCell>
                <mxCell id="WgjA6SBDDIQvqYweK6Cp-17" style="edgeStyle=orthogonalEdgeStyle;rounded=0;orthogonalLoop=1;jettySize=auto;html=1;exitX=1;exitY=0.5;exitDx=0;exitDy=0;" parent="WIyWlLk6GJQsqaUBKTNV-1" source="WgjA6SBDDIQvqYweK6Cp-15" target="WgjA6SBDDIQvqYweK6Cp-3" edge="1">
                    <mxGeometry relative="1" as="geometry"/>
                </mxCell>
                <mxCell id="WgjA6SBDDIQvqYweK6Cp-15" value="Shopify page to install the app" style="rounded=1;whiteSpace=wrap;html=1;shadow=0;strokeWidth=1;spacing=6;spacingTop=-4;" parent="WIyWlLk6GJQsqaUBKTNV-1" vertex="1">
                    <mxGeometry x="40" y="370" width="120" height="60" as="geometry"/>
                </mxCell>
                <mxCell id="WgjA6SBDDIQvqYweK6Cp-18" value="Processing a Chatbot &lt;br&gt;according&amp;nbsp;user preference" style="text;html=1;align=center;verticalAlign=middle;resizable=0;points=[];autosize=1;strokeColor=none;fillColor=none;" parent="WIyWlLk6GJQsqaUBKTNV-1" vertex="1">
                    <mxGeometry x="170" y="400" width="160" height="40" as="geometry"/>
                </mxCell>
                <mxCell id="WgjA6SBDDIQvqYweK6Cp-22" value="" style="edgeStyle=orthogonalEdgeStyle;rounded=0;orthogonalLoop=1;jettySize=auto;html=1;" parent="WIyWlLk6GJQsqaUBKTNV-1" source="WgjA6SBDDIQvqYweK6Cp-19" target="WgjA6SBDDIQvqYweK6Cp-21" edge="1">
                    <mxGeometry relative="1" as="geometry"/>
                </mxCell>
                <mxCell id="WgjA6SBDDIQvqYweK6Cp-19" value="Add to shopify store by just toggling on the button" style="rounded=1;whiteSpace=wrap;html=1;shadow=0;strokeWidth=1;spacing=6;spacingTop=-4;" parent="WIyWlLk6GJQsqaUBKTNV-1" vertex="1">
                    <mxGeometry x="670" y="550" width="120" height="60" as="geometry"/>
                </mxCell>
                <mxCell id="WgjA6SBDDIQvqYweK6Cp-24" value="" style="edgeStyle=orthogonalEdgeStyle;rounded=0;orthogonalLoop=1;jettySize=auto;html=1;" parent="WIyWlLk6GJQsqaUBKTNV-1" source="WgjA6SBDDIQvqYweK6Cp-21" target="WgjA6SBDDIQvqYweK6Cp-3" edge="1">
                    <mxGeometry relative="1" as="geometry"/>
                </mxCell>
                <mxCell id="WgjA6SBDDIQvqYweK6Cp-21" value="A page that gives insights on the app&lt;br&gt;customizations&amp;nbsp;" style="rounded=1;whiteSpace=wrap;html=1;shadow=0;strokeWidth=1;spacing=6;spacingTop=-4;" parent="WIyWlLk6GJQsqaUBKTNV-1" vertex="1">
                    <mxGeometry x="350" y="550" width="120" height="60" as="geometry"/>
                </mxCell>
                <mxCell id="WgjA6SBDDIQvqYweK6Cp-23" value="user clicks manage&amp;nbsp;&lt;br&gt;app link" style="text;html=1;align=center;verticalAlign=middle;resizable=0;points=[];autosize=1;strokeColor=none;fillColor=none;" parent="WIyWlLk6GJQsqaUBKTNV-1" vertex="1">
                    <mxGeometry x="510" y="545" width="130" height="40" as="geometry"/>
                </mxCell>
                <mxCell id="WgjA6SBDDIQvqYweK6Cp-25" value="user clicks on&amp;nbsp;&lt;br&gt;links to customize&amp;nbsp;&lt;br&gt;the bot" style="text;html=1;align=center;verticalAlign=middle;resizable=0;points=[];autosize=1;strokeColor=none;fillColor=none;" parent="WIyWlLk6GJQsqaUBKTNV-1" vertex="1">
                    <mxGeometry x="410" y="463" width="120" height="60" as="geometry"/>
                </mxCell>
            </root>
        </mxGraphModel>
    </diagram>
</mxfile>